<svg xmlns="http://www.w3.org/2000/svg" viewBox="0 0 512 512">
  <rect width="512" height="512" rx="112" fill="#f5662d"/>
  <path d="M112 0h288c62 0 112 50 112 112v288c0 62-50 112-112 112H112C50 512 0 462 0 400V112C0 50 50 0 112 0Z" fill="url(#g)"/>
  <circle cx="256" cy="235" r="148" fill="#fff7e8"/>
  <path d="M147 172 177 83l69 66c7-1 14-2 21-2 10 0 20 1 29 3l67-67 24 97c22 28 35 64 35 103 0 90-73 163-163 163S96 373 96 283c0-43 17-82 44-111Z" fill="#fff" stroke="#17120f" stroke-width="18" stroke-linejoin="round"/>
  <ellipse cx="205" cy="270" rx="14" ry="19" fill="#17120f"/>
  <ellipse cx="309" cy="270" rx="14" ry="19" fill="#17120f"/>
  <path d="M239 302c11-10 23-10 34 0-3 14-8 21-17 21s-15-7-17-21Z" fill="#f5662d" stroke="#17120f" stroke-width="7"/>
  <path d="M256 322v20m0 0c-17 18-34 16-44 4m44-4c17 18 34 16 44 4" fill="none" stroke="#17120f" stroke-width="8" stroke-linecap="round"/>
  <path d="M175 307 99 291m78 44-73 12m233-40 76-16m-78 44 73 12" stroke="#17120f" stroke-width="7" stroke-linecap="round"/>
  <text x="256" y="480" text-anchor="middle" font-family="Arial, sans-serif" font-size="42" font-weight="800" fill="#17120f">DOMICHA</text>
  <defs><linearGradient id="g" x1="56" y1="20" x2="463" y2="492" gradientUnits="userSpaceOnUse"><stop stop-color="#ffd9ad"/><stop offset=".5" stop-color="#f5662d"/><stop offset="1" stop-color="#e84d17"/></linearGradient></defs>
</svg>
